<svg fill="none" height="44" viewBox="0 0 44 44" width="44" xmlns="http://www.w3.org/2000/svg"><path d="m6.06505 25.6505c.67373-1.2581.46749-2.8049-.5156-3.8361-1.46433-1.54-2.24805-3.3893-2.24805-5.3142 0-4.3655 4.3861-8.79971 10.9996-8.79971s10.9996 4.43421 10.9996 8.79971-4.3861 8.7997-10.9996 8.7997c-.9006 0-1.7737-.0894-2.5986-.2475-.715-.1375-1.4575-.0413-2.11059.2887-.28187.1444-.57061.2819-.86622.4125-1.09997.495-2.2618.9281-3.43051 1.2375.19249-.3163.37124-.6256.54311-.935.07562-.1306.15124-.2681.21999-.4056zm8.23595 2.9493c7.8991 0 14.2995-5.4173 14.2995-12.0996 0-6.68228-6.4004-12.0996-14.2995-12.0996-7.89908 0-14.29948838 5.41732-14.29948838 12.0996 0 2.8736 1.18245838 5.5067 3.15551838 7.5829-.06187.1168-.13062.2406-.1925.3506-.7081 1.2649-1.53307 2.5093-2.516159 3.5817-.45373414.4813-.570605 1.1825-.316239 1.7806.268116.6118.859346 1.0037 1.519318 1.0037 2.95615 0 5.94668-.9143 8.43535-2.0418.33-.1513.66-.3094.9762-.4675 1.0381.2063 2.1243.3094 3.238.3094zm15.3995 8.7997c1.1137 0 2.193-.11 3.238-.3094.3162.1581.6462.3162.9762.4675 2.4887 1.1275 5.4792 2.0418 8.4354 2.0418.6599 0 1.2512-.3919 1.5124-.9968.2612-.605.1375-1.3062-.3162-1.7806-.9762-1.0725-1.8012-2.3168-2.5162-3.5818-.0619-.1168-.1306-.2337-.1925-.3506 1.9799-2.083 3.1624-4.7161 3.1624-7.5897 0-6.4898-6.0429-11.7902-13.6258-12.0858.2819 1.0449.4263 2.1449.4263 3.2861v.0412c5.9947.4606 9.8996 4.6405 9.8996 8.7585 0 1.9249-.7837 3.7742-2.248 5.3073-.9831 1.0312-1.1894 2.5849-.5156 3.8361.0756.1375.1512.275.22.4056.1718.3094.3574.6188.5431.935-1.1688-.3094-2.3306-.7356-3.4306-1.2375-.2956-.1306-.5843-.2681-.8662-.4124-.6531-.33-1.3955-.4263-2.1105-.2888-.8319.165-1.705.2475-2.5987.2475-4.2417 0-7.5622-1.8218-9.4047-4.283-1.0999.3713-2.2549.6463-3.4373.8113 2.3305 4.0148 7.2116 6.7785 12.8489 6.7785z" fill="#fff"/></svg>